<svg xmlns="http://www.w3.org/2000/svg" version="1.1" xmlns:xlink="http://www.w3.org/1999/xlink" xmlns:svgjs="http://svgjs.dev/svgjs" width="2000" height="1999" viewBox="0 0 2000 1999"><g transform="matrix(1,0,0,1,-0.431486880466764,-0.4312711370263287)"><svg viewBox="0 0 343 343" data-background-color="#ffffff" preserveAspectRatio="xMidYMid meet" height="1999" width="2000" xmlns="http://www.w3.org/2000/svg" xmlns:xlink="http://www.w3.org/1999/xlink"><g id="tight-bounds" transform="matrix(1,0,0,1,0.0740000000000407,0.07400000000001228)"><svg viewBox="0 0 342.85155851775386 342.85155851775386" height="342.85155851775386" width="342.85155851775386"><g><svg></svg></g><g><svg viewBox="0 0 342.85155851775386 342.85155851775386" height="342.85155851775386" width="342.85155851775386"><g><path d="M0 171.426c0-94.676 76.75-171.426 171.426-171.426 94.676 0 171.426 76.75 171.426 171.426 0 94.676-76.75 171.426-171.426 171.426-94.676 0-171.426-76.75-171.426-171.426zM171.426 331.849c88.6 0 160.424-71.824 160.423-160.423 0-88.6-71.824-160.424-160.423-160.424-88.6 0-160.424 71.824-160.424 160.424 0 88.6 71.824 160.424 160.424 160.423z" data-fill-palette-color="tertiary" fill="#ee3e38" stroke="transparent"></path><ellipse rx="164.56874808852186" ry="164.56874808852186" cx="171.42577925887693" cy="171.42577925887693" fill="#ee3e38" stroke="transparent" stroke-width="0" fill-opacity="1" data-fill-palette-color="tertiary"></ellipse></g><g transform="matrix(1,0,0,1,64.84655864529837,110.42576746081228)"><svg viewBox="0 0 213.1584412271571 122.0000235961293" height="122.0000235961293" width="213.1584412271571"><g><svg viewBox="0 0 213.1584412271571 122.0000235961293" height="122.0000235961293" width="213.1584412271571"><g><svg viewBox="0 0 213.1584412271571 122.0000235961293" height="122.0000235961293" width="213.1584412271571"><g><svg viewBox="0 0 213.1584412271571 122.0000235961293" height="122.0000235961293" width="213.1584412271571"><g><svg viewBox="0 0 213.1584412271571 122.0000235961293" height="122.0000235961293" width="213.1584412271571"><g><svg viewBox="0 0 213.1584412271571 122.0000235961293" height="122.0000235961293" width="213.1584412271571"><g transform="matrix(1,0,0,1,0,0)"><svg width="213.1584412271571" viewBox="-12.5 -31.25 54.599998474121094 31.25" height="122.0000235961293" data-palette-color="#ffffff"><path d="M27.65 0L22.55-11.1Q22.35-11.45 22.35-12.08 22.35-12.7 22.45-13.5L22.45-13.5 22.05-13.5 19.7 0 10.2 0 15.7-31.25 24.65-31.25 29.75-20.15Q29.9-19.8 29.9-19.18 29.9-18.55 29.8-17.75L29.8-17.75 30.2-17.75 32.6-31.25 42.1-31.25 36.6 0 27.65 0ZM9.1-2.4L8.7-0.15-12.5-2.4 9.1-2.4ZM10.8-12.05L10.4-9.8-10.8-12.05 10.8-12.05ZM11.65-16.85L11.25-14.6-9.95-16.85 11.65-16.85ZM12.5-21.65L12.1-19.4-9.1-21.65 12.5-21.65ZM13.3-26.45L12.95-24.2-8.25-26.45 13.3-26.45ZM9.95-7.25L9.55-5-11.65-7.25 9.95-7.25ZM14.15-31.25L13.75-29-7.4-31.25 14.15-31.25Z" opacity="1" transform="matrix(1,0,0,1,0,0)" fill="#ffffff" class="undefined-text-0" data-fill-palette-color="quaternary" id="text-0"></path></svg></g></svg></g></svg></g></svg></g><g></g></svg></g></svg></g></svg></g></svg></g><defs></defs></svg><rect width="342.85155851775386" height="342.85155851775386" fill="none" stroke="none" visibility="hidden"></rect></g></svg></g></svg>